<svg xmlns="http://www.w3.org/2000/svg" id="Ebene_1" data-name="Ebene 1" viewBox="0 0 313.97 59.97"><defs/><defs><style>.cls-1{fill:#dc143c}.cls-2{fill:#fff}</style></defs><path d="M114.43 19.25A18.64 18.64 0 1195.8 37.9a18.65 18.65 0 0118.63-18.64m0-3.41a22 22 0 1022 22.09 22 22 0 00-22-22z" class="cls-1"/><path d="M22.58 58.53a1.83 1.83 0 01-1.75 1 1.73 1.73 0 01-1.69-1l-19-40.45a1.92 1.92 0 01-.14-.63A1.53 1.53 0 011.09 16a2.29 2.29 0 01.78-.14 1.59 1.59 0 011.61.91L20.83 54 38.1 16.75a1.3 1.3 0 011.19-.91A2.09 2.09 0 0141.47 17a1.49 1.49 0 010 1.27zM149.82 42.87v15.44a1.44 1.44 0 01-.56 1.17 2.09 2.09 0 01-1.33.46 2 2 0 01-1.34-.46 1.44 1.44 0 01-.56-1.17V19.84h-4.21a1.56 1.56 0 01-1.62-1.5v-.11a1.72 1.72 0 01.46-1.2 1.46 1.46 0 011.16-.49h22.05q15.38 0 15.38 13.13 0 9.46-8.36 12.22L180 57.55a1.59 1.59 0 01-.67 2 3.15 3.15 0 01-1.44.41 1.38 1.38 0 01-1.12-.76l-9.62-16.5c-1.22.09-2.3.14-3.23.14zm0-23v19.77h14.05q11.58 0 11.59-10c0-3.5-1-6-2.92-7.54s-4.83-2.28-8.67-2.28zM194.34 42.87v15.44a1.44 1.44 0 01-.56 1.17 2.09 2.09 0 01-1.33.46 2 2 0 01-1.34-.46 1.44 1.44 0 01-.56-1.17V19.84h-4.21a1.56 1.56 0 01-1.62-1.5v-.11a1.72 1.72 0 01.46-1.2 1.46 1.46 0 011.16-.49h22q15.38 0 15.38 13.13 0 9.46-8.36 12.22l9.06 15.66a1.59 1.59 0 01-.67 2 3.15 3.15 0 01-1.44.41 1.38 1.38 0 01-1.12-.76l-9.62-16.5c-1.22.09-2.29.14-3.23.14zm0-23v19.77h14q11.58 0 11.59-10c0-3.5-1-6-2.92-7.54s-4.83-2.28-8.67-2.28zM244.06 16.54h6.25a1.56 1.56 0 011.55.83l19.87 40.17a1.52 1.52 0 01.14.63 1.57 1.57 0 01-1.12 1.62 2.29 2.29 0 01-.78.14 1.6 1.6 0 01-1.61-.91l-6.53-13.21H238.3L231.77 59c-.42.93-1.22 1.19-2.38.76a1.54 1.54 0 01-1.13-1.55 1.92 1.92 0 01.14-.63l18.68-37.78h-3a1.53 1.53 0 01-1.61-1.45v-.15a1.73 1.73 0 01.45-1.2 1.56 1.56 0 011.14-.46zm6 5l-10.21 21.05h20.43zM278.3 19.84h-4.22a1.66 1.66 0 01-1.16-.45 1.61 1.61 0 01-.45-1.16A1.7 1.7 0 01273 17a1.54 1.54 0 011.16-.49h18.75q9.55 0 15.35 5.8T314 38q0 9.82-5.69 15.55t-15.45 5.73h-12.74c-1.22 0-1.82-.54-1.82-1.62zm3.79 0v36.1h10.74c5.43 0 9.68-1.59 12.75-4.74s4.61-7.56 4.6-13.2-1.57-10.09-4.71-13.31-7.35-4.84-12.64-4.85z" class="cls-2"/><circle cx="65.56" cy="37.71" r="4.43" class="cls-2"/><path d="M65.56 59.63a21.93 21.93 0 11-.94-43.85h.94a1.71 1.71 0 010 3.41 18.51 18.51 0 1014.28 6.73 1.7 1.7 0 012.63-2.16 21.92 21.92 0 01-16.91 35.87z" class="cls-1"/><path d="M65.56 40A1.7 1.7 0 0164 37.54L80 3.42h-7.31a1.73 1.73 0 01-1.84-1.58A1.72 1.72 0 0172.42 0h10.27a1.69 1.69 0 011.44.8 1.74 1.74 0 01.11 1.64L67.1 39a1.73 1.73 0 01-1.54 1z" class="cls-2"/></svg>