<svg id="Ebene_1" data-name="Ebene 1" xmlns="https://www.w3.org/2000/svg" viewBox="0 0 313.97 59.97"><defs><style>.cls-1{fill:#dc143c;}.cls-2{fill:#fff;}</style></defs><path class="cls-1" d="M114.43,19.25A18.64,18.64,0,1,1,95.8,37.9h0a18.65,18.65,0,0,1,18.63-18.64m0-3.41a22,22,0,1,0,22,22.09h0a22,22,0,0,0-22-22Z"/><path class="cls-2" d="M22.58,58.53a1.83,1.83,0,0,1-1.75,1,1.73,1.73,0,0,1-1.69-1L.14,18.08A1.92,1.92,0,0,1,0,17.45,1.53,1.53,0,0,1,1.09,16a2.29,2.29,0,0,1,.78-.14,1.59,1.59,0,0,1,1.61.91L20.83,54,38.1,16.75a1.3,1.3,0,0,1,1.19-.91A2.09,2.09,0,0,1,41.47,17a1.49,1.49,0,0,1,0,1.27Z"/><path class="cls-2" d="M149.82,42.87V58.31a1.44,1.44,0,0,1-.56,1.17,2.09,2.09,0,0,1-1.33.46,2,2,0,0,1-1.34-.46,1.44,1.44,0,0,1-.56-1.17V19.84h-4.21a1.56,1.56,0,0,1-1.62-1.5v-.11a1.72,1.72,0,0,1,.46-1.2,1.46,1.46,0,0,1,1.16-.49h22.05q15.38,0,15.38,13.13,0,9.46-8.36,12.22L180,57.55a1.59,1.59,0,0,1-.67,2,3.15,3.15,0,0,1-1.44.41,1.38,1.38,0,0,1-1.12-.76l-9.62-16.5c-1.22.09-2.3.14-3.23.14Zm0-23V39.64h14.05q11.58,0,11.59-10c0-3.5-1-6-2.92-7.54s-4.83-2.28-8.67-2.28Z"/><path class="cls-2" d="M194.34,42.87V58.31a1.44,1.44,0,0,1-.56,1.17,2.09,2.09,0,0,1-1.33.46,2,2,0,0,1-1.34-.46,1.44,1.44,0,0,1-.56-1.17V19.84h-4.21a1.56,1.56,0,0,1-1.62-1.5v-.11a1.72,1.72,0,0,1,.46-1.2,1.46,1.46,0,0,1,1.16-.49h22q15.38,0,15.38,13.13,0,9.46-8.36,12.22l9.06,15.66a1.59,1.59,0,0,1-.67,2,3.15,3.15,0,0,1-1.44.41,1.38,1.38,0,0,1-1.12-.76l-9.62-16.5c-1.22.09-2.29.14-3.23.14Zm0-23V39.64h14q11.58,0,11.59-10c0-3.5-1-6-2.92-7.54s-4.83-2.28-8.67-2.28Z"/><path class="cls-2" d="M244.06,16.54h6.25a1.56,1.56,0,0,1,1.55.83l19.87,40.17a1.52,1.52,0,0,1,.14.63,1.57,1.57,0,0,1-1.12,1.62,2.29,2.29,0,0,1-.78.14,1.6,1.6,0,0,1-1.61-.91l-6.53-13.21H238.3L231.77,59c-.42.93-1.22,1.19-2.38.76a1.54,1.54,0,0,1-1.13-1.55,1.92,1.92,0,0,1,.14-.63L247.08,19.8h-3a1.53,1.53,0,0,1-1.61-1.45h0V18.2a1.73,1.73,0,0,1,.45-1.2A1.56,1.56,0,0,1,244.06,16.54Zm6,5L239.85,42.59h20.43Z"/><path class="cls-2" d="M278.3,19.84h-4.22a1.66,1.66,0,0,1-1.16-.45,1.61,1.61,0,0,1-.45-1.16A1.7,1.7,0,0,1,273,17a1.54,1.54,0,0,1,1.16-.49h18.75q9.55,0,15.35,5.8T314,38q0,9.82-5.69,15.55t-15.45,5.73H280.12c-1.22,0-1.82-.54-1.82-1.62Zm3.79,0v36.1h10.74c5.43,0,9.68-1.59,12.75-4.74s4.61-7.56,4.6-13.2-1.57-10.09-4.71-13.31-7.35-4.84-12.64-4.85Z"/><circle class="cls-2" cx="65.56" cy="37.71" r="4.43"/><path class="cls-1" d="M65.56,59.63a21.93,21.93,0,1,1-.94-43.85h.94a1.71,1.71,0,0,1,0,3.41,18.51,18.51,0,1,0,14.28,6.73,1.7,1.7,0,0,1,2.63-2.16h0A21.92,21.92,0,0,1,65.56,59.63Z"/><path class="cls-2" d="M65.56,40A1.7,1.7,0,0,1,64,37.54L80,3.42H72.69a1.73,1.73,0,0,1-1.84-1.58A1.72,1.72,0,0,1,72.42,0H82.69a1.69,1.69,0,0,1,1.44.8,1.74,1.74,0,0,1,.11,1.64L67.1,39A1.73,1.73,0,0,1,65.56,40Z"/></svg>